<?xml version="1.0"?>
<svg xmlns:rdf="http://www.w3.org/1999/02/22-rdf-syntax-ns#" xmlns="http://www.w3.org/2000/svg" xmlns:cc="http://creativecommons.org/ns#" xmlns:xlink="http://www.w3.org/1999/xlink" xmlns:dc="http://purl.org/dc/elements/1.1/" xmlns:svg="http://www.w3.org/2000/svg" id="svg3682" viewBox="0 0 349.4 462.32" version="1.1">
  <defs id="defs3684">
    <linearGradient id="linearGradient5094">
      <stop id="stop5096" stop-color="#6c3000" offset="0"/>
      <stop id="stop5098" stop-color="#9c6000" offset=".17883"/>
      <stop id="stop5100" stop-color="#d8a820" offset=".35969"/>
      <stop id="stop5102" stop-color="#cc9408" offset=".58523"/>
      <stop id="stop5104" stop-color="#cc980c" offset=".73915"/>
      <stop id="stop5106" stop-color="#f4e868" offset=".85133"/>
      <stop id="stop5108" stop-color="#602400" offset="1"/>
    </linearGradient>
    <linearGradient id="linearGradient4953" y2="146.5" gradientUnits="userSpaceOnUse" x2="595.07" gradientTransform="matrix(.59928 0 0 .77068 190.39 134.16)" y1="825.9" x1="28.91">
      <stop id="stop4949" stop-color="#000004" offset="0"/>
      <stop id="stop4961" stop-color="#000094" offset=".48971"/>
      <stop id="stop4951" stop-color="#0088e8" offset="1"/>
    </linearGradient>
    <radialGradient id="radialGradient4994" gradientUnits="userSpaceOnUse" cy="380.97" cx="557.4" gradientTransform="matrix(.89143 -.096365 .091226 .70289 25.76 166.9)" r="22.677">
      <stop id="stop4984" stop-color="#fcfc80" offset="0"/>
      <stop id="stop4990" stop-color="#d8ac24" offset=".57"/>
      <stop id="stop4986" stop-color="#a86c00" offset="1"/>
    </radialGradient>
    <linearGradient id="linearGradient5084" y2="386.63" gradientUnits="userSpaceOnUse" x2="448.59" y1="366.78" x1="378.32">
      <stop id="stop5022" stop-color="#6c3000" offset="0"/>
      <stop id="stop5036" stop-color="#9c6000" offset=".13115"/>
      <stop id="stop5034" stop-color="#d8a820" offset=".2818"/>
      <stop id="stop5032" stop-color="#cc9408" offset=".58523"/>
      <stop id="stop5030" stop-color="#cc980c" offset=".73915"/>
      <stop id="stop5028" stop-color="#f4e868" offset=".85133"/>
      <stop id="stop5024" stop-color="#602400" offset="1"/>
    </linearGradient>
    <linearGradient id="linearGradient5092" y2="405.28" xlink:href="#linearGradient5094" gradientUnits="userSpaceOnUse" x2="427.15" y1="425.53" x1="372.37"/>
    <linearGradient id="linearGradient5116" y2="473.56" xlink:href="#linearGradient5094" gradientUnits="userSpaceOnUse" x2="464.86" y1="435.06" x1="362.05"/>
    <linearGradient id="linearGradient5124" y2="484.68" xlink:href="#linearGradient5094" gradientUnits="userSpaceOnUse" x2="453.35" y1="513.66" x1="346.96"/>
    <linearGradient id="linearGradient5132" y2="560.11" gradientUnits="userSpaceOnUse" x2="466.85" y1="526.36" x1="335.05">
      <stop id="stop5050" stop-color="#6c3000" stop-opacity=".32692" offset="0"/>
      <stop id="stop5052" stop-color="#a06400" offset=".18644"/>
      <stop id="stop5054" stop-color="#fcf87c" offset=".36713"/>
      <stop id="stop5056" stop-color="#cc9408" offset=".55897"/>
      <stop id="stop5058" stop-color="#cc980c" offset=".78972"/>
      <stop id="stop5060" stop-color="#f4e868" offset=".9284"/>
      <stop id="stop5062" stop-color="#602400" offset="1"/>
    </linearGradient>
    <linearGradient id="linearGradient5140" y2="578.37" xlink:href="#linearGradient5094" gradientUnits="userSpaceOnUse" x2="458.91" y1="611.71" x1="285.83"/>
    <linearGradient id="linearGradient5148" y2="676.42" xlink:href="#linearGradient5094" gradientUnits="userSpaceOnUse" x2="522.03" y1="622.43" x1="278.28"/>
    <filter id="filter5166" height="1.1639" width="1.2286" y="-.081955" x="-.11428" color-interpolation-filters="sRGB">
      <feGaussianBlur id="feGaussianBlur5168" stdDeviation="12.013053"/>
    </filter>
    <filter id="filter5267" height="1.2974" width="1.2505" y="-.14871" x="-.12524" color-interpolation-filters="sRGB">
      <feGaussianBlur id="feGaussianBlur5269" stdDeviation="4.9068695"/>
    </filter>
  </defs>
  <g id="layer1" transform="translate(-225.04 -258.21)">
    <rect id="rect4177" height="462.32" width="349.4" y="258.21" x="225.04" fill="url(#linearGradient4953)"/>
    <path id="path5064" d="m441.9 396.78c6.688-13.821-11.84-15.264-31.173-16.312-64.525-5.037-8.8084-37.461 5.6184-43.316-36 18.787-42.548 32.121-0.36248 36.429 36.389 1.839 44.139 9.7609 25.917 23.199z" fill="url(#linearGradient5084)"/>
    <path id="path3983" filter="url(#filter5166)" d="m422.06 384.22c32.328-0.84983 47.815 17.515-14.158 34.412-48.9 16.203-67.87 32.325 1.3202 41.432 105.39 9.6128 53.024 36.422-20.116 49.422-74.246 15.498-79.603 31.229 15.327 41.651 128.32 15.59 46.471 46.459-29.219 52.597-123.27 5.9406-139.48 36.732 10.732 49.876 85.103 5.5266 166.64 12.909 133.62 34.754 40.578-27.897-40.955-35.279-126.06-40.806-150.22-13.144-134-43.935-10.732-49.876 75.691-6.1374 157.54-37.006 29.219-52.597-94.93-10.421-89.572-26.153-15.327-41.651 73.14-13.001 125.51-39.81 20.116-49.422-69.19-9.1068-50.22-25.229-1.3202-41.432 61.973-16.897 46.486-35.262 14.158-34.412-42.931-4.5251-54.829-14.968 1.5074-41.597-63.901 32.681-52.003 43.123-9.0723 47.649z" fill="#fcfc80"/>
    <path id="path5242" opacity=".40769" d="m588.67 410-25.165-16.793 9.083 22.674-16.451-21.722-14.79 23.017 8.2698-26.578-27.145 18.683 23.963-25.396-37.195-9.0475 38.566 1.7458-23.657-26.741 29.059 21.64-1.472-33.497 8.8401 32.545 22.047-26.248-15.527 29.809 36.172-13.514-32.99 20.227 28.876 9.3706-30.247-2.0688z" transform="matrix(.64322 0 0 .70479 64.344 60.136)" filter="url(#filter5267)" fill="#fff"/>
    <path id="path3445" fill="url(#radialGradient4994)" transform="matrix(.64322 0 0 .70479 64.344 60.792)" d="m574.86 399.82-14.967-5.557-13.063 9.1792 0.6599-15.952-12.767-9.5869 15.375-4.3018 5.1726-15.104 8.8424 13.293 15.963 0.25196-9.9101 12.517z"/>
    <path id="path5004" d="m574.86 399.82-14.967-5.557-13.063 9.1792 0.6599-15.952-12.767-9.5869 15.375-4.3018 5.1726-15.104 8.8424 13.293 15.963 0.25196-9.9101 12.517z" fill="url(#radialGradient4994)" transform="matrix(.45624 0 0 .49991 160.42 186.5)"/>
    <path id="path5066" d="m366.28 429.8c7.8743-7.0078 23.976-15.826 36.973-18.668 12.8-3.6829 25.753-7.0089 37.154-13.955-7.3124 8.082-21.667 13.912-34.435 17.58-15.052 3.7127-26.542 9.9472-39.691 15.043z" fill="url(#linearGradient5092)"/>
    <path id="path5068" d="m365.56 430.53c-6.0652 3.8806-25.814 17.307 24.467 25.374 20.396 3.272 40.539 4.4064 58.722 9.062 11.68 3.5293 14.139 8.0278 11.962 14.862 4.0193-3.773 12.687-9.6878 7.612-14.68-10.219-10.053-39.394-12.341-62.89-14.68-12.346-1.229-26.899-4.2041-36.248-9.4244-4.0044-2.2361-4.5971-6.6789-3.6248-10.512z" fill="url(#linearGradient5116)"/>
    <path id="path5070" d="m400.72 498.31c21.046-4.184 41.176-10.201 59.809-19.211-9.5906 8.4907-25.508 16.756-61.984 24.286-22.732 4.045-34.664 5.4551-65.065 17.399 13.099-12.171 36.955-17.227 67.24-22.474z" fill="url(#linearGradient5124)"/>
    <path id="path5072" d="m333.48 520.97c4.1273 16.897 52.556 17.318 78.658 21.93 83.377 12.203 58.618 27.312 51.472 31.354 8.2409-15.364-33.344-20.22-58.178-24.83-22.943-2.972-46.361-3.8004-69.233-12.143-18.032-6.5773-7.3553-13.429-2.7186-16.312z" fill="url(#linearGradient5132)"/>
    <path id="path5074" d="m278.93 615.03c13.53-14.913 53.799-15.933 88.445-19.936 32.652-3.7732 65.719-5.5821 96.057-20.48-13.968 15.439-53.721 22.349-93.157 25.917-31.687 2.8673-63.363 3.807-91.345 14.499z" fill="url(#linearGradient5140)"/>
    <path id="path5076" d="m279.5 614.64c-9.648 18.113 70.678 27.882 129.45 31.71 152.11 9.9055 111.74 32.391 104.33 38.738 31.05-23.807-57.026-26.899-111.2-32.527-47.068-4.8894-164.55-13.448-122.59-37.921z" fill="url(#linearGradient5148)"/>
    <path id="path5170" fill="url(#radialGradient4994)" transform="matrix(.45624 0 0 .49991 135.72 226.92)" d="m574.86 399.82-14.967-5.557-13.063 9.1792 0.6599-15.952-12.767-9.5869 15.375-4.3018 5.1726-15.104 8.8424 13.293 15.963 0.25196-9.9101 12.517z"/>
    <path id="path5174" d="m574.86 399.82-14.967-5.557-13.063 9.1792 0.6599-15.952-12.767-9.5869 15.375-4.3018 5.1726-15.104 8.8424 13.293 15.963 0.25196-9.9101 12.517z" fill="url(#radialGradient4994)" transform="matrix(.45624 0 0 .49991 166.03 214.57)"/>
    <path id="path5178" d="m574.86 399.82-14.967-5.557-13.063 9.1792 0.6599-15.952-12.767-9.5869 15.375-4.3018 5.1726-15.104 8.8424 13.293 15.963 0.25196-9.9101 12.517z" fill="url(#radialGradient4994)" transform="matrix(.45624 0 0 .49991 125.61 256.11)"/>
    <path id="path5182" fill="url(#radialGradient4994)" transform="matrix(.45624 0 0 .49991 153.68 261.73)" d="m574.86 399.82-14.967-5.557-13.063 9.1792 0.6599-15.952-12.767-9.5869 15.375-4.3018 5.1726-15.104 8.8424 13.293 15.963 0.25196-9.9101 12.517z"/>
    <path id="path5186" d="m574.86 399.82-14.967-5.557-13.063 9.1792 0.6599-15.952-12.767-9.5869 15.375-4.3018 5.1726-15.104 8.8424 13.293 15.963 0.25196-9.9101 12.517z" fill="url(#radialGradient4994)" transform="matrix(.45624 0 0 .49991 184 266.22)"/>
    <path id="path5190" fill="url(#radialGradient4994)" transform="matrix(.45624 0 0 .49991 113.1 314.8)" d="m574.86 399.82-14.967-5.557-13.063 9.1792 0.6599-15.952-12.767-9.5869 15.375-4.3018 5.1726-15.104 8.8424 13.293 15.963 0.25196-9.9101 12.517z"/>
    <path id="path5194" d="m574.86 399.82-14.967-5.557-13.063 9.1792 0.6599-15.952-12.767-9.5869 15.375-4.3018 5.1726-15.104 8.8424 13.293 15.963 0.25196-9.9101 12.517z" fill="url(#radialGradient4994)" transform="matrix(.45624 0 0 .49991 148.55 307.58)"/>
    <path id="path5198" fill="url(#radialGradient4994)" transform="matrix(.45624 0 0 .49991 180.72 297.73)" d="m574.86 399.82-14.967-5.557-13.063 9.1792 0.6599-15.952-12.767-9.5869 15.375-4.3018 5.1726-15.104 8.8424 13.293 15.963 0.25196-9.9101 12.517z"/>
    <path id="path5202" d="m574.86 399.82-14.967-5.557-13.063 9.1792 0.6599-15.952-12.767-9.5869 15.375-4.3018 5.1726-15.104 8.8424 13.293 15.963 0.25196-9.9101 12.517z" fill="url(#radialGradient4994)" transform="matrix(.45624 0 0 .49991 113.76 351.56)"/>
    <path id="path5206" fill="url(#radialGradient4994)" transform="matrix(.45624 0 0 .49991 150.52 354.84)" d="m574.86 399.82-14.967-5.557-13.063 9.1792 0.6599-15.952-12.767-9.5869 15.375-4.3018 5.1726-15.104 8.8424 13.293 15.963 0.25196-9.9101 12.517z"/>
    <path id="path5210" d="m574.86 399.82-14.967-5.557-13.063 9.1792 0.6599-15.952-12.767-9.5869 15.375-4.3018 5.1726-15.104 8.8424 13.293 15.963 0.25196-9.9101 12.517z" fill="url(#radialGradient4994)" transform="matrix(.45624 0 0 .49991 185.97 358.78)"/>
    <path id="path5214" fill="url(#radialGradient4994)" transform="matrix(.45624 0 0 .49991 65.181 410.64)" d="m574.86 399.82-14.967-5.557-13.063 9.1792 0.6599-15.952-12.767-9.5869 15.375-4.3018 5.1726-15.104 8.8424 13.293 15.963 0.25196-9.9101 12.517z"/>
    <path id="path5218" d="m574.86 399.82-14.967-5.557-13.063 9.1792 0.6599-15.952-12.767-9.5869 15.375-4.3018 5.1726-15.104 8.8424 13.293 15.963 0.25196-9.9101 12.517z" fill="url(#radialGradient4994)" transform="matrix(.45624 0 0 .49991 117.7 405.39)"/>
    <path id="path5222" fill="url(#radialGradient4994)" transform="matrix(.45624 0 0 .49991 164.96 398.16)" d="m574.86 399.82-14.967-5.557-13.063 9.1792 0.6599-15.952-12.767-9.5869 15.375-4.3018 5.1726-15.104 8.8424 13.293 15.963 0.25196-9.9101 12.517z"/>
    <path id="path5226" d="m574.86 399.82-14.967-5.557-13.063 9.1792 0.6599-15.952-12.767-9.5869 15.375-4.3018 5.1726-15.104 8.8424 13.293 15.963 0.25196-9.9101 12.517z" fill="url(#radialGradient4994)" transform="matrix(.45624 0 0 .49991 77.653 450.02)"/>
    <path id="path5230" fill="url(#radialGradient4994)" transform="matrix(.45624 0 0 .49991 134.11 455.93)" d="m574.86 399.82-14.967-5.557-13.063 9.1792 0.6599-15.952-12.767-9.5869 15.375-4.3018 5.1726-15.104 8.8424 13.293 15.963 0.25196-9.9101 12.517z"/>
    <path id="path5234" d="m574.86 399.82-14.967-5.557-13.063 9.1792 0.6599-15.952-12.767-9.5869 15.375-4.3018 5.1726-15.104 8.8424 13.293 15.963 0.25196-9.9101 12.517z" fill="url(#radialGradient4994)" transform="matrix(.45624 0 0 .49991 186.62 461.18)"/>
    <path id="path5238" fill="url(#radialGradient4994)" transform="matrix(.45624 0 0 .49991 242.42 469.06)" d="m574.86 399.82-14.967-5.557-13.063 9.1792 0.6599-15.952-12.767-9.5869 15.375-4.3018 5.1726-15.104 8.8424 13.293 15.963 0.25196-9.9101 12.517z"/>
    <path id="path5290" opacity=".40769" d="m588.67 410-25.165-16.793 9.083 22.674-16.451-21.722-14.79 23.017 8.2698-26.578-27.145 18.683 23.963-25.396-37.195-9.0475 38.566 1.7458-23.657-26.741 29.059 21.64-1.472-33.497 8.8401 32.545 22.047-26.248-15.527 29.809 36.172-13.514-32.99 20.227 28.876 9.3706-30.247-2.0688z" transform="matrix(.44583 0 0 .48850 167.44 192.75)" filter="url(#filter5267)" fill="#fff"/>
    <path id="path5292" opacity=".40769" d="m588.67 410-25.165-16.793 9.083 22.674-16.451-21.722-14.79 23.017 8.2698-26.578-27.145 18.683 23.963-25.396-37.195-9.0475 38.566 1.7458-23.657-26.741 29.059 21.64-1.472-33.497 8.8401 32.545 22.047-26.248-15.527 29.809 36.172-13.514-32.99 20.227 28.876 9.3706-30.247-2.0688z" transform="matrix(.44583 0 0 .48850 172.77 221.21)" filter="url(#filter5267)" fill="#fff"/>
    <path id="path5294" opacity=".40769" d="m588.67 410-25.165-16.793 9.083 22.674-16.451-21.722-14.79 23.017 8.2698-26.578-27.145 18.683 23.963-25.396-37.195-9.0475 38.566 1.7458-23.657-26.741 29.059 21.64-1.472-33.497 8.8401 32.545 22.047-26.248-15.527 29.809 36.172-13.514-32.99 20.227 28.876 9.3706-30.247-2.0688z" transform="matrix(.44583 0 0 .48850 141.94 233.66)" filter="url(#filter5267)" fill="#fff"/>
    <path id="path5296" opacity=".40769" d="m588.67 410-25.165-16.793 9.083 22.674-16.451-21.722-14.79 23.017 8.2698-26.578-27.145 18.683 23.963-25.396-37.195-9.0475 38.566 1.7458-23.657-26.741 29.059 21.64-1.472-33.497 8.8401 32.545 22.047-26.248-15.527 29.809 36.172-13.514-32.99 20.227 28.876 9.3706-30.247-2.0688z" transform="matrix(.44583 0 0 .48850 131.86 262.72)" filter="url(#filter5267)" fill="#fff"/>
    <path id="path5298" opacity=".40769" d="m588.67 410-25.165-16.793 9.083 22.674-16.451-21.722-14.79 23.017 8.2698-26.578-27.145 18.683 23.963-25.396-37.195-9.0475 38.566 1.7458-23.657-26.741 29.059 21.64-1.472-33.497 8.8401 32.545 22.047-26.248-15.527 29.809 36.172-13.514-32.99 20.227 28.876 9.3706-30.247-2.0688z" transform="matrix(.44583 0 0 .48850 158.54 268.05)" filter="url(#filter5267)" fill="#fff"/>
    <path id="path5300" opacity=".40769" d="m588.67 410-25.165-16.793 9.083 22.674-16.451-21.722-14.79 23.017 8.2698-26.578-27.145 18.683 23.963-25.396-37.195-9.0475 38.566 1.7458-23.657-26.741 29.059 21.64-1.472-33.497 8.8401 32.545 22.047-26.248-15.527 29.809 36.172-13.514-32.99 20.227 28.876 9.3706-30.247-2.0688z" transform="matrix(.44583 0 0 .48850 188.78 271.02)" filter="url(#filter5267)" fill="#fff"/>
    <path id="path5302" opacity=".40769" d="m588.67 410-25.165-16.793 9.083 22.674-16.451-21.722-14.79 23.017 8.2698-26.578-27.145 18.683 23.963-25.396-37.195-9.0475 38.566 1.7458-23.657-26.741 29.059 21.64-1.472-33.497 8.8401 32.545 22.047-26.248-15.527 29.809 36.172-13.514-32.99 20.227 28.876 9.3706-30.247-2.0688z" transform="matrix(.44583 0 0 .48850 184.63 302.45)" filter="url(#filter5267)" fill="#fff"/>
    <path id="path5304" opacity=".40769" d="m588.67 410-25.165-16.793 9.083 22.674-16.451-21.722-14.79 23.017 8.2698-26.578-27.145 18.683 23.963-25.396-37.195-9.0475 38.566 1.7458-23.657-26.741 29.059 21.64-1.472-33.497 8.8401 32.545 22.047-26.248-15.527 29.809 36.172-13.514-32.99 20.227 28.876 9.3706-30.247-2.0688z" transform="matrix(.44583 0 0 .48850 154.98 311.93)" filter="url(#filter5267)" fill="#fff"/>
    <path id="path5306" opacity=".40769" d="m588.67 410-25.165-16.793 9.083 22.674-16.451-21.722-14.79 23.017 8.2698-26.578-27.145 18.683 23.963-25.396-37.195-9.0475 38.566 1.7458-23.657-26.741 29.059 21.64-1.472-33.497 8.8401 32.545 22.047-26.248-15.527 29.809 36.172-13.514-32.99 20.227 28.876 9.3706-30.247-2.0688z" transform="matrix(.44583 0 0 .48850 120 319.64)" filter="url(#filter5267)" fill="#fff"/>
    <path id="path5308" opacity=".40769" d="m588.67 410-25.165-16.793 9.083 22.674-16.451-21.722-14.79 23.017 8.2698-26.578-27.145 18.683 23.963-25.396-37.195-9.0475 38.566 1.7458-23.657-26.741 29.059 21.64-1.472-33.497 8.8401 32.545 22.047-26.248-15.527 29.809 36.172-13.514-32.99 20.227 28.876 9.3706-30.247-2.0688z" transform="matrix(.44583 0 0 .48850 120.59 357)" filter="url(#filter5267)" fill="#fff"/>
    <path id="path5310" opacity=".40769" d="m588.67 410-25.165-16.793 9.083 22.674-16.451-21.722-14.79 23.017 8.2698-26.578-27.145 18.683 23.963-25.396-37.195-9.0475 38.566 1.7458-23.657-26.741 29.059 21.64-1.472-33.497 8.8401 32.545 22.047-26.248-15.527 29.809 36.172-13.514-32.99 20.227 28.876 9.3706-30.247-2.0688z" transform="matrix(.44583 0 0 .48850 156.17 361.15)" filter="url(#filter5267)" fill="#fff"/>
    <path id="path5312" opacity=".40769" d="m588.67 410-25.165-16.793 9.083 22.674-16.451-21.722-14.79 23.017 8.2698-26.578-27.145 18.683 23.963-25.396-37.195-9.0475 38.566 1.7458-23.657-26.741 29.059 21.64-1.472-33.497 8.8401 32.545 22.047-26.248-15.527 29.809 36.172-13.514-32.99 20.227 28.876 9.3706-30.247-2.0688z" transform="matrix(.44583 0 0 .48850 190.56 365.89)" filter="url(#filter5267)" fill="#fff"/>
    <path id="path5314" opacity=".40769" d="m588.67 410-25.165-16.793 9.083 22.674-16.451-21.722-14.79 23.017 8.2698-26.578-27.145 18.683 23.963-25.396-37.195-9.0475 38.566 1.7458-23.657-26.741 29.059 21.64-1.472-33.497 8.8401 32.545 22.047-26.248-15.527 29.809 36.172-13.514-32.99 20.227 28.876 9.3706-30.247-2.0688z" transform="matrix(.44583 0 0 .48850 172.18 404.44)" filter="url(#filter5267)" fill="#fff"/>
    <path id="path5316" opacity=".40769" d="m588.67 410-25.165-16.793 9.083 22.674-16.451-21.722-14.79 23.017 8.2698-26.578-27.145 18.683 23.963-25.396-37.195-9.0475 38.566 1.7458-23.657-26.741 29.059 21.64-1.472-33.497 8.8401 32.545 22.047-26.248-15.527 29.809 36.172-13.514-32.99 20.227 28.876 9.3706-30.247-2.0688z" transform="matrix(.44583 0 0 .48850 125.34 412.15)" filter="url(#filter5267)" fill="#fff"/>
    <path id="path5318" opacity=".40769" d="m588.67 410-25.165-16.793 9.083 22.674-16.451-21.722-14.79 23.017 8.2698-26.578-27.145 18.683 23.963-25.396-37.195-9.0475 38.566 1.7458-23.657-26.741 29.059 21.64-1.472-33.497 8.8401 32.545 22.047-26.248-15.527 29.809 36.172-13.514-32.99 20.227 28.876 9.3706-30.247-2.0688z" transform="matrix(.44583 0 0 .48850 72.561 417.48)" filter="url(#filter5267)" fill="#fff"/>
    <path id="path5320" opacity=".40769" d="m588.67 410-25.165-16.793 9.083 22.674-16.451-21.722-14.79 23.017 8.2698-26.578-27.145 18.683 23.963-25.396-37.195-9.0475 38.566 1.7458-23.657-26.741 29.059 21.64-1.472-33.497 8.8401 32.545 22.047-26.248-15.527 29.809 36.172-13.514-32.99 20.227 28.876 9.3706-30.247-2.0688z" transform="matrix(.44583 0 0 .48850 83.234 455.43)" filter="url(#filter5267)" fill="#fff"/>
    <path id="path5322" opacity=".40769" d="m588.67 410-25.165-16.793 9.083 22.674-16.451-21.722-14.79 23.017 8.2698-26.578-27.145 18.683 23.963-25.396-37.195-9.0475 38.566 1.7458-23.657-26.741 29.059 21.64-1.472-33.497 8.8401 32.545 22.047-26.248-15.527 29.809 36.172-13.514-32.99 20.227 28.876 9.3706-30.247-2.0688z" transform="matrix(.44583 0 0 .48850 139.57 462.55)" filter="url(#filter5267)" fill="#fff"/>
    <path id="path5324" opacity=".40769" d="m588.67 410-25.165-16.793 9.083 22.674-16.451-21.722-14.79 23.017 8.2698-26.578-27.145 18.683 23.963-25.396-37.195-9.0475 38.566 1.7458-23.657-26.741 29.059 21.64-1.472-33.497 8.8401 32.545 22.047-26.248-15.527 29.809 36.172-13.514-32.99 20.227 28.876 9.3706-30.247-2.0688z" transform="matrix(.44583 0 0 .48850 192.34 466.7)" filter="url(#filter5267)" fill="#fff"/>
    <path id="path5326" opacity=".40769" d="m588.67 410-25.165-16.793 9.083 22.674-16.451-21.722-14.79 23.017 8.2698-26.578-27.145 18.683 23.963-25.396-37.195-9.0475 38.566 1.7458-23.657-26.741 29.059 21.64-1.472-33.497 8.8401 32.545 22.047-26.248-15.527 29.809 36.172-13.514-32.99 20.227 28.876 9.3706-30.247-2.0688z" transform="matrix(.44583 0 0 .48850 246.3 475.59)" filter="url(#filter5267)" fill="#fff"/>
    <path id="path5328" opacity=".40769" d="m588.67 410-25.165-16.793 9.083 22.674-16.451-21.722-14.79 23.017 8.2698-26.578-27.145 18.683 23.963-25.396-37.195-9.0475 38.566 1.7458-23.657-26.741 29.059 21.64-1.472-33.497 8.8401 32.545 22.047-26.248-15.527 29.809 36.172-13.514-32.99 20.227 28.876 9.3706-30.247-2.0688z" transform="matrix(.64322 0 0 .70479 64.344 60.136)" filter="url(#filter5267)" fill="#fff"/>
  </g>
  <metadata>
    <rdf:RDF>
      <cc:Work>
        <dc:format>image/svg+xml</dc:format>
        <dc:type rdf:resource="http://purl.org/dc/dcmitype/StillImage"/>
        <cc:license rdf:resource="http://creativecommons.org/licenses/publicdomain/"/>
        <dc:publisher>
          <cc:Agent rdf:about="http://openclipart.org/">
            <dc:title>Openclipart</dc:title>
          </cc:Agent>
        </dc:publisher>
        <dc:title>Modern Christmas Tree</dc:title>
        <dc:date>2011-01-27T11:02:26</dc:date>
        <dc:description>A modern Christmas Tree drawn with Inkscape.</dc:description>
        <dc:source>http://openclipart.org/detail/110185/modern-christmas-tree-by-merlin2525</dc:source>
        <dc:creator>
          <cc:Agent>
            <dc:title>Merlin2525</dc:title>
          </cc:Agent>
        </dc:creator>
        <dc:subject>
          <rdf:Bag>
            <rdf:li>arbol</rdf:li>
            <rdf:li>&#xC3;&#xA1;rbol</rdf:li>
            <rdf:li>arbre</rdf:li>
            <rdf:li>argent</rdf:li>
            <rdf:li>bright</rdf:li>
            <rdf:li>brillante</rdf:li>
            <rdf:li>brillar</rdf:li>
            <rdf:li>card</rdf:li>
            <rdf:li>carte</rdf:li>
            <rdf:li>christmas</rdf:li>
            <rdf:li>cinta</rdf:li>
            <rdf:li>clip art</rdf:li>
            <rdf:li>clipart</rdf:li>
            <rdf:li>d'argent</rdf:li>
            <rdf:li>eclat</rdf:li>
            <rdf:li>estrella</rdf:li>
            <rdf:li>estrellas</rdf:li>
            <rdf:li>etoiles</rdf:li>
            <rdf:li>glow</rdf:li>
            <rdf:li>gold</rdf:li>
            <rdf:li>les</rdf:li>
            <rdf:li>lights</rdf:li>
            <rdf:li>luces</rdf:li>
            <rdf:li>lueur</rdf:li>
            <rdf:li>lumieres</rdf:li>
            <rdf:li>modern</rdf:li>
            <rdf:li>moderne</rdf:li>
            <rdf:li>moderno</rdf:li>
            <rdf:li>navidad</rdf:li>
            <rdf:li>noel</rdf:li>
            <rdf:li>or</rdf:li>
            <rdf:li>oro</rdf:li>
            <rdf:li>pascua</rdf:li>
            <rdf:li>plata</rdf:li>
            <rdf:li>ribbon</rdf:li>
            <rdf:li>ruban</rdf:li>
            <rdf:li>silver</rdf:li>
            <rdf:li>sparkle</rdf:li>
            <rdf:li>star</rdf:li>
            <rdf:li>stars</rdf:li>
            <rdf:li>tarjeta</rdf:li>
            <rdf:li>tree</rdf:li>
            <rdf:li>x-mas</rdf:li>
            <rdf:li>xmas</rdf:li>
          </rdf:Bag>
        </dc:subject>
      </cc:Work>
      <cc:License rdf:about="http://creativecommons.org/licenses/publicdomain/">
        <cc:permits rdf:resource="http://creativecommons.org/ns#Reproduction"/>
        <cc:permits rdf:resource="http://creativecommons.org/ns#Distribution"/>
        <cc:permits rdf:resource="http://creativecommons.org/ns#DerivativeWorks"/>
      </cc:License>
    </rdf:RDF>
  </metadata>
</svg>
